# xmcd CD database file
#
# Track frame offsets:
#	150
#	19220
#	45835
#	70525
#
# Disc length: 1284 seconds
#
# Revision: 2
# Processed by: cddbd v1.5.2PL0 Copyright (c) Steve Scherf et al.
# Submitted via: CDex 1.77
#
DISCID=24050204
DTITLE=Undercover - Lovesick
DYEAR=1993
DGENRE=Blues
TTITLE0=Undercover - Lovesick(Edit)
TTITLE1=Undercover - Lovesick(Essential Mix)
TTITLE2=Undercover - Lovesick(Rubber Dub Luv Mix)
TTITLE3=Undercover - Sha Do(Extended)
EXTD=YEAR: 1993
EXTT0=
EXTT1=
EXTT2=
EXTT3=
PLAYORDER=
